<svg width="32" height="32" viewBox="0 0 32 32" fill="none" xmlns="http://www.w3.org/2000/svg">
<g clip-path="url(#clip0_13_86)">
<path d="M5.33333 10.6667C6.06971 10.6667 6.66667 10.0697 6.66667 9.33333C6.66667 8.59695 6.06971 8 5.33333 8C4.59695 8 4 8.59695 4 9.33333C4 10.0697 4.59695 10.6667 5.33333 10.6667Z" fill="#131313"/>
<path d="M5.33333 10.6667C6.06971 10.6667 6.66667 10.0697 6.66667 9.33333C6.66667 8.59695 6.06971 8 5.33333 8C4.59695 8 4 8.59695 4 9.33333C4 10.0697 4.59695 10.6667 5.33333 10.6667Z" fill="white" fill-opacity="0.1"/>
<path d="M5.33333 17.3333C6.06971 17.3333 6.66667 16.7364 6.66667 16C6.66667 15.2636 6.06971 14.6667 5.33333 14.6667C4.59695 14.6667 4 15.2636 4 16C4 16.7364 4.59695 17.3333 5.33333 17.3333Z" fill="#131313"/>
<path d="M5.33333 17.3333C6.06971 17.3333 6.66667 16.7364 6.66667 16C6.66667 15.2636 6.06971 14.6667 5.33333 14.6667C4.59695 14.6667 4 15.2636 4 16C4 16.7364 4.59695 17.3333 5.33333 17.3333Z" fill="white" fill-opacity="0.1"/>
<path d="M5.33333 24C6.06971 24 6.66667 23.4031 6.66667 22.6667C6.66667 21.9303 6.06971 21.3333 5.33333 21.3333C4.59695 21.3333 4 21.9303 4 22.6667C4 23.4031 4.59695 24 5.33333 24Z" fill="#131313"/>
<path d="M5.33333 24C6.06971 24 6.66667 23.4031 6.66667 22.6667C6.66667 21.9303 6.06971 21.3333 5.33333 21.3333C4.59695 21.3333 4 21.9303 4 22.6667C4 23.4031 4.59695 24 5.33333 24Z" fill="white" fill-opacity="0.1"/>
<path d="M26.7466 14.6667H10.5866C9.89445 14.6667 9.33331 15.2278 9.33331 15.92V16.08C9.33331 16.7722 9.89445 17.3333 10.5866 17.3333H26.7466C27.4388 17.3333 28 16.7722 28 16.08V15.92C28 15.2278 27.4388 14.6667 26.7466 14.6667Z" fill="#131313"/>
<path d="M26.7466 14.6667H10.5866C9.89445 14.6667 9.33331 15.2278 9.33331 15.92V16.08C9.33331 16.7722 9.89445 17.3333 10.5866 17.3333H26.7466C27.4388 17.3333 28 16.7722 28 16.08V15.92C28 15.2278 27.4388 14.6667 26.7466 14.6667Z" fill="white" fill-opacity="0.1"/>
<path d="M26.7466 21.3333H10.5866C9.89445 21.3333 9.33331 21.8945 9.33331 22.5867V22.7467C9.33331 23.4389 9.89445 24 10.5866 24H26.7466C27.4388 24 28 23.4389 28 22.7467V22.5867C28 21.8945 27.4388 21.3333 26.7466 21.3333Z" fill="#131313"/>
<path d="M26.7466 21.3333H10.5866C9.89445 21.3333 9.33331 21.8945 9.33331 22.5867V22.7467C9.33331 23.4389 9.89445 24 10.5866 24H26.7466C27.4388 24 28 23.4389 28 22.7467V22.5867C28 21.8945 27.4388 21.3333 26.7466 21.3333Z" fill="white" fill-opacity="0.1"/>
<path d="M26.7466 8H10.5866C9.89445 8 9.33331 8.56114 9.33331 9.25333V9.41333C9.33331 10.1055 9.89445 10.6667 10.5866 10.6667H26.7466C27.4388 10.6667 28 10.1055 28 9.41333V9.25333C28 8.56114 27.4388 8 26.7466 8Z" fill="#131313"/>
<path d="M26.7466 8H10.5866C9.89445 8 9.33331 8.56114 9.33331 9.25333V9.41333C9.33331 10.1055 9.89445 10.6667 10.5866 10.6667H26.7466C27.4388 10.6667 28 10.1055 28 9.41333V9.25333C28 8.56114 27.4388 8 26.7466 8Z" fill="white" fill-opacity="0.1"/>
</g>
<defs>
<clipPath id="clip0_13_86">
<rect width="32" height="32" fill="white"/>
</clipPath>
</defs>
</svg>
