<svg width="32" height="32" viewBox="0 0 32 32" fill="none" xmlns="http://www.w3.org/2000/svg">
<path d="M16 4C9.38312 4 4 9.38312 4 16C4 22.6169 9.38312 28 16 28C22.6169 28 28 22.6169 28 16C28 9.38312 22.6169 4 16 4ZM21.7069 21.7069C21.5194 21.8943 21.2651 21.9995 21 21.9995C20.7349 21.9995 20.4806 21.8943 20.2931 21.7069L17.6156 19.03C16.4845 19.8084 15.1033 20.1359 13.7431 19.9484C12.3828 19.7608 11.1418 19.0717 10.2635 18.0163C9.38519 16.9609 8.93302 15.6153 8.99571 14.2436C9.0584 12.872 9.63143 11.5733 10.6023 10.6023C11.5733 9.63143 12.872 9.0584 14.2436 8.99571C15.6153 8.93302 16.9609 9.38519 18.0163 10.2635C19.0717 11.1418 19.7608 12.3828 19.9484 13.7431C20.1359 15.1033 19.8084 16.4845 19.03 17.6156L21.7069 20.2931C21.8943 20.4806 21.9995 20.7349 21.9995 21C21.9995 21.2651 21.8943 21.5194 21.7069 21.7069V21.7069Z" fill="#131313"/>
<path d="M16 4C9.38312 4 4 9.38312 4 16C4 22.6169 9.38312 28 16 28C22.6169 28 28 22.6169 28 16C28 9.38312 22.6169 4 16 4ZM21.7069 21.7069C21.5194 21.8943 21.2651 21.9995 21 21.9995C20.7349 21.9995 20.4806 21.8943 20.2931 21.7069L17.6156 19.03C16.4845 19.8084 15.1033 20.1359 13.7431 19.9484C12.3828 19.7608 11.1418 19.0717 10.2635 18.0163C9.38519 16.9609 8.93302 15.6153 8.99571 14.2436C9.0584 12.872 9.63143 11.5733 10.6023 10.6023C11.5733 9.63143 12.872 9.0584 14.2436 8.99571C15.6153 8.93302 16.9609 9.38519 18.0163 10.2635C19.0717 11.1418 19.7608 12.3828 19.9484 13.7431C20.1359 15.1033 19.8084 16.4845 19.03 17.6156L21.7069 20.2931C21.8943 20.4806 21.9995 20.7349 21.9995 21C21.9995 21.2651 21.8943 21.5194 21.7069 21.7069V21.7069Z" fill="white" fill-opacity="0.2"/>
<path d="M14.5 18C16.433 18 18 16.433 18 14.5C18 12.567 16.433 11 14.5 11C12.567 11 11 12.567 11 14.5C11 16.433 12.567 18 14.5 18Z" fill="#131313"/>
<path d="M14.5 18C16.433 18 18 16.433 18 14.5C18 12.567 16.433 11 14.5 11C12.567 11 11 12.567 11 14.5C11 16.433 12.567 18 14.5 18Z" fill="white" fill-opacity="0.2"/>
</svg>
