<svg width="20" height="20" viewBox="0 0 20 20" fill="none" xmlns="http://www.w3.org/2000/svg">
<path d="M13.3333 9.14583V20L8.33334 15.6092L3.33334 20V0H9.01334C8.55251 0.48 8.17668 1.0425 7.91668 1.66667H5.00001V16.3183L8.33334 13.3917L11.6667 16.3183V9.01583C12.3375 9.17417 12.8158 9.185 13.3333 9.14583V9.14583ZM16.6667 3.75C16.6667 5.82083 14.985 7.5 12.9167 7.5C10.8467 7.5 9.16668 5.82083 9.16668 3.75C9.16668 1.67917 10.8467 0 12.9167 0C14.985 0 16.6667 1.67917 16.6667 3.75ZM15 3.33333H13.3333V1.66667H12.5V3.33333H10.8333V4.16667H12.5V5.83333H13.3333V4.16667H15V3.33333Z" fill="#131313"/>
<path d="M13.3333 9.14583V20L8.33334 15.6092L3.33334 20V0H9.01334C8.55251 0.48 8.17668 1.0425 7.91668 1.66667H5.00001V16.3183L8.33334 13.3917L11.6667 16.3183V9.01583C12.3375 9.17417 12.8158 9.185 13.3333 9.14583V9.14583ZM16.6667 3.75C16.6667 5.82083 14.985 7.5 12.9167 7.5C10.8467 7.5 9.16668 5.82083 9.16668 3.75C9.16668 1.67917 10.8467 0 12.9167 0C14.985 0 16.6667 1.67917 16.6667 3.75ZM15 3.33333H13.3333V1.66667H12.5V3.33333H10.8333V4.16667H12.5V5.83333H13.3333V4.16667H15V3.33333Z" fill="white" fill-opacity="0.4"/>
</svg>
