<svg width="12" height="12" viewBox="0 0 12 12" fill="none" xmlns="http://www.w3.org/2000/svg">
<g clip-path="url(#clip0_376_1786)">
<path d="M10 4.676C10 2.25 7.6245 0.5 5 0.5C2.3595 0.5 0 2.263 0 4.676C0 5.5315 0.3075 6.3715 0.8525 7.0235C0.876 7.787 0.427 8.8825 0.022 9.6795C1.106 9.484 2.648 9.0505 3.3465 8.622C7.195 9.5605 10 7.201 10 4.676ZM2.75 5.366C2.4055 5.366 2.125 5.086 2.125 4.741C2.125 4.396 2.4055 4.116 2.75 4.116C3.0945 4.116 3.375 4.396 3.375 4.741C3.375 5.086 3.0945 5.366 2.75 5.366ZM5 5.366C4.6555 5.366 4.375 5.086 4.375 4.741C4.375 4.396 4.6555 4.116 5 4.116C5.3445 4.116 5.625 4.396 5.625 4.741C5.625 5.086 5.3445 5.366 5 5.366ZM7.25 5.366C6.9055 5.366 6.625 5.086 6.625 4.741C6.625 4.396 6.9055 4.116 7.25 4.116C7.5945 4.116 7.875 4.396 7.875 4.741C7.875 5.086 7.5945 5.366 7.25 5.366ZM11.4415 9.7605C11.427 10.261 11.7205 10.978 11.9855 11.5C11.276 11.371 10.2665 11.088 9.8095 10.8075C8.127 11.2165 6.7525 10.6625 6.023 9.7575C8.3015 9.4275 10.1435 7.979 10.7675 6.0865C11.5075 6.576 12 7.332 12 8.2235C12 8.7835 11.7985 9.334 11.4415 9.7605Z" fill="#131313"/>
<path d="M10 4.676C10 2.25 7.6245 0.5 5 0.5C2.3595 0.5 0 2.263 0 4.676C0 5.5315 0.3075 6.3715 0.8525 7.0235C0.876 7.787 0.427 8.8825 0.022 9.6795C1.106 9.484 2.648 9.0505 3.3465 8.622C7.195 9.5605 10 7.201 10 4.676ZM2.75 5.366C2.4055 5.366 2.125 5.086 2.125 4.741C2.125 4.396 2.4055 4.116 2.75 4.116C3.0945 4.116 3.375 4.396 3.375 4.741C3.375 5.086 3.0945 5.366 2.75 5.366ZM5 5.366C4.6555 5.366 4.375 5.086 4.375 4.741C4.375 4.396 4.6555 4.116 5 4.116C5.3445 4.116 5.625 4.396 5.625 4.741C5.625 5.086 5.3445 5.366 5 5.366ZM7.25 5.366C6.9055 5.366 6.625 5.086 6.625 4.741C6.625 4.396 6.9055 4.116 7.25 4.116C7.5945 4.116 7.875 4.396 7.875 4.741C7.875 5.086 7.5945 5.366 7.25 5.366ZM11.4415 9.7605C11.427 10.261 11.7205 10.978 11.9855 11.5C11.276 11.371 10.2665 11.088 9.8095 10.8075C8.127 11.2165 6.7525 10.6625 6.023 9.7575C8.3015 9.4275 10.1435 7.979 10.7675 6.0865C11.5075 6.576 12 7.332 12 8.2235C12 8.7835 11.7985 9.334 11.4415 9.7605Z" fill="white" fill-opacity="0.4"/>
</g>
<defs>
<clipPath id="clip0_376_1786">
<rect width="12" height="12" fill="white"/>
</clipPath>
</defs>
</svg>
