<svg width="20" height="20" viewBox="0 0 20 20" fill="none" xmlns="http://www.w3.org/2000/svg">
<g clip-path="url(#clip0_566_349)">
<path d="M5.1569 7.26627C5.52273 6.90044 5.92856 6.59877 6.36023 6.36044C8.76606 5.0346 11.8511 5.73961 13.3977 8.08461L11.5261 9.95544C10.9894 8.73127 9.6569 8.0346 8.33106 8.33127C7.8319 8.44294 7.35773 8.69211 6.97023 9.07961L3.38356 12.6679C2.2944 13.7571 2.2944 15.5288 3.38356 16.6179C4.47273 17.7071 6.2444 17.7071 7.33356 16.6179L8.4394 15.5121C9.44523 15.9113 10.5236 16.0704 11.5886 15.9913L9.14773 18.4321C7.05523 20.5246 3.66273 20.5246 1.57023 18.4321C-0.52227 16.3396 -0.52227 12.9471 1.57023 10.8546L5.1569 7.26627V7.26627ZM10.8536 1.5696L8.41273 4.01044C9.4769 3.93044 10.5561 4.09044 11.5619 4.48877L12.6669 3.38377C13.7561 2.2946 15.5277 2.2946 16.6169 3.38377C17.7061 4.47294 17.7061 6.24461 16.6169 7.33377L13.0294 10.9213C11.9369 12.0138 10.1627 12.0046 9.0794 10.9213C8.8269 10.6688 8.6094 10.3546 8.47356 10.0454L6.6019 11.9163C6.79856 12.2146 7.00273 12.4721 7.26523 12.7346C7.9419 13.4113 8.80356 13.9154 9.79523 14.1546C11.0802 14.4638 12.4569 14.2929 13.6394 13.6404C14.0711 13.4021 14.4769 13.1004 14.8427 12.7346L18.4294 9.14711C20.5227 7.0546 20.5227 3.6621 18.4302 1.5696C16.3377 -0.522062 12.9461 -0.522062 10.8536 1.5696V1.5696Z" fill="#131313"/>
<path d="M5.1569 7.26627C5.52273 6.90044 5.92856 6.59877 6.36023 6.36044C8.76606 5.0346 11.8511 5.73961 13.3977 8.08461L11.5261 9.95544C10.9894 8.73127 9.6569 8.0346 8.33106 8.33127C7.8319 8.44294 7.35773 8.69211 6.97023 9.07961L3.38356 12.6679C2.2944 13.7571 2.2944 15.5288 3.38356 16.6179C4.47273 17.7071 6.2444 17.7071 7.33356 16.6179L8.4394 15.5121C9.44523 15.9113 10.5236 16.0704 11.5886 15.9913L9.14773 18.4321C7.05523 20.5246 3.66273 20.5246 1.57023 18.4321C-0.52227 16.3396 -0.52227 12.9471 1.57023 10.8546L5.1569 7.26627V7.26627ZM10.8536 1.5696L8.41273 4.01044C9.4769 3.93044 10.5561 4.09044 11.5619 4.48877L12.6669 3.38377C13.7561 2.2946 15.5277 2.2946 16.6169 3.38377C17.7061 4.47294 17.7061 6.24461 16.6169 7.33377L13.0294 10.9213C11.9369 12.0138 10.1627 12.0046 9.0794 10.9213C8.8269 10.6688 8.6094 10.3546 8.47356 10.0454L6.6019 11.9163C6.79856 12.2146 7.00273 12.4721 7.26523 12.7346C7.9419 13.4113 8.80356 13.9154 9.79523 14.1546C11.0802 14.4638 12.4569 14.2929 13.6394 13.6404C14.0711 13.4021 14.4769 13.1004 14.8427 12.7346L18.4294 9.14711C20.5227 7.0546 20.5227 3.6621 18.4302 1.5696C16.3377 -0.522062 12.9461 -0.522062 10.8536 1.5696V1.5696Z" fill="white" fill-opacity="0.4"/>
</g>
<defs>
<clipPath id="clip0_566_349">
<rect width="20" height="20" fill="white"/>
</clipPath>
</defs>
</svg>
