<svg width="20" height="20" viewBox="0 0 20 20" fill="none" xmlns="http://www.w3.org/2000/svg">
<path fill-rule="evenodd" clip-rule="evenodd" d="M10 13.7459C11.035 13.7459 11.875 14.5859 11.875 15.6209C11.875 16.6559 11.035 17.4958 10 17.4958C8.965 17.4958 8.125 16.6559 8.125 15.6209C8.125 14.5859 8.965 13.7459 10 13.7459ZM10 8.12085C11.035 8.12085 11.875 8.96085 11.875 9.99585C11.875 11.0308 11.035 11.8708 10 11.8708C8.965 11.8708 8.125 11.0308 8.125 9.99585C8.125 8.96085 8.965 8.12085 10 8.12085ZM10 2.49585C11.035 2.49585 11.875 3.33585 11.875 4.37085C11.875 5.40585 11.035 6.24585 10 6.24585C8.965 6.24585 8.125 5.40585 8.125 4.37085C8.125 3.33585 8.965 2.49585 10 2.49585Z" fill="#131313"/>
<path fill-rule="evenodd" clip-rule="evenodd" d="M10 13.7459C11.035 13.7459 11.875 14.5859 11.875 15.6209C11.875 16.6559 11.035 17.4958 10 17.4958C8.965 17.4958 8.125 16.6559 8.125 15.6209C8.125 14.5859 8.965 13.7459 10 13.7459ZM10 8.12085C11.035 8.12085 11.875 8.96085 11.875 9.99585C11.875 11.0308 11.035 11.8708 10 11.8708C8.965 11.8708 8.125 11.0308 8.125 9.99585C8.125 8.96085 8.965 8.12085 10 8.12085ZM10 2.49585C11.035 2.49585 11.875 3.33585 11.875 4.37085C11.875 5.40585 11.035 6.24585 10 6.24585C8.965 6.24585 8.125 5.40585 8.125 4.37085C8.125 3.33585 8.965 2.49585 10 2.49585Z" fill="white" fill-opacity="0.4"/>
</svg>
